<svg width="24" height="24" viewBox="0 0 24 24" fill="none" xmlns="http://www.w3.org/2000/svg">
<g clip-path="url(#clip0_10_524)">
<path d="M4.44141 12.4717C7.61426 12.4805 10.2158 15.082 10.2158 18.2461C10.2158 19.3096 9.91699 20.3203 9.39844 21.1816H16.6758C18.5654 21.1816 19.541 20.1885 19.541 18.29V10.4238H12.9492C11.8506 10.4238 11.3232 9.89648 11.3232 8.79785V2.13574H7.30664C5.42578 2.13574 4.44141 3.12891 4.44141 5.03613V12.4717ZM13.1162 9.14062H19.4531C19.4004 8.73633 19.1104 8.3584 18.6533 7.89258L13.8457 3.02344C13.4062 2.5752 13.0107 2.27637 12.6064 2.22363V8.63086C12.6064 8.97363 12.7822 9.14062 13.1162 9.14062ZM4.44141 22.7812C6.90234 22.7812 8.97656 20.7246 8.97656 18.2461C8.97656 15.7676 6.92871 13.7197 4.44141 13.7197C1.96289 13.7197 -0.0849609 15.7676 -0.0849609 18.2461C-0.0849609 20.7334 1.96289 22.7812 4.44141 22.7812ZM1.56738 18.2461C1.56738 17.8857 1.81348 17.6484 2.17383 17.6484H3.83496V15.9873C3.83496 15.627 4.08105 15.3809 4.44141 15.3809C4.81055 15.3809 5.04785 15.627 5.04785 15.9873V17.6484H6.70898C7.06934 17.6484 7.31543 17.8857 7.31543 18.2461C7.31543 18.6152 7.06934 18.8525 6.70898 18.8525H5.04785V20.5225C5.04785 20.8828 4.81055 21.1289 4.44141 21.1289C4.08105 21.1289 3.83496 20.8828 3.83496 20.5225V18.8525H2.17383C1.81348 18.8525 1.57617 18.6152 1.56738 18.2461Z" fill="#1C1C1E"/>
</g>
<defs>
<clipPath id="clip0_10_524">
<rect width="24" height="24" fill="white"/>
</clipPath>
</defs>
</svg>
