<svg width="24" height="24" viewBox="0 0 24 24" fill="none" xmlns="http://www.w3.org/2000/svg">
<g clip-path="url(#clip0_10_476)">
<path d="M7.31543 21.1816H16.6846C18.5742 21.1816 19.5498 20.1885 19.5498 18.29V10.4238H12.958C11.8594 10.4238 11.332 9.89648 11.332 8.79785V2.13574H7.31543C5.43457 2.13574 4.4502 3.12891 4.4502 5.03613V18.29C4.4502 20.1885 5.43457 21.1816 7.31543 21.1816ZM13.125 9.14062H19.4619C19.4092 8.73633 19.1191 8.3584 18.6621 7.89258L13.8545 3.02344C13.415 2.5752 13.0195 2.27637 12.6152 2.22363V8.63086C12.624 8.97363 12.791 9.14062 13.125 9.14062ZM8.58984 14.3174C8.21191 14.3174 7.93945 14.0449 7.93945 13.6934C7.93945 13.3418 8.21191 13.0693 8.58984 13.0693H15.4365C15.7969 13.0693 16.0781 13.3418 16.0781 13.6934C16.0781 14.0449 15.7969 14.3174 15.4365 14.3174H8.58984ZM8.58984 17.6133C8.21191 17.6133 7.93945 17.3408 7.93945 16.9893C7.93945 16.6377 8.21191 16.3652 8.58984 16.3652H15.4365C15.7969 16.3652 16.0781 16.6377 16.0781 16.9893C16.0781 17.3408 15.7969 17.6133 15.4365 17.6133H8.58984Z" fill="#1C1C1E"/>
</g>
<defs>
<clipPath id="clip0_10_476">
<rect width="24" height="24" fill="white"/>
</clipPath>
</defs>
</svg>
