<svg width="24" height="24" viewBox="0 0 24 24" fill="none" xmlns="http://www.w3.org/2000/svg">
<g clip-path="url(#clip0_10_515)">
<path d="M4.44141 12.4717C7.61426 12.4805 10.2158 15.082 10.2158 18.2461C10.2158 19.3096 9.91699 20.3203 9.39844 21.1816H16.6758C18.5654 21.1816 19.541 20.1885 19.541 18.29V10.4238H12.9492C11.8506 10.4238 11.3232 9.89648 11.3232 8.79785V2.13574H7.30664C5.42578 2.13574 4.44141 3.12891 4.44141 5.03613V12.4717ZM13.1162 9.14062H19.4531C19.4004 8.73633 19.1104 8.3584 18.6533 7.89258L13.8457 3.02344C13.4062 2.5752 13.0107 2.27637 12.6064 2.22363V8.63086C12.6064 8.97363 12.7822 9.14062 13.1162 9.14062ZM4.05469 22.8955H4.81055C5.10938 22.8955 5.34668 22.7109 5.41699 22.4121L5.61914 21.5596C5.72461 21.5332 5.85645 21.4805 5.96191 21.4277L6.7002 21.876C6.95508 22.0342 7.23633 22.0254 7.46484 21.8057L7.99219 21.2695C8.19434 21.0586 8.2207 20.7686 8.05371 20.4961L7.60547 19.7578C7.67578 19.6436 7.70215 19.5557 7.74609 19.4414L8.59863 19.2393C8.89746 19.1689 9.09082 18.9404 9.09082 18.6328V17.8857C9.09082 17.5957 8.88867 17.3672 8.59863 17.2969L7.75488 17.0947C7.71094 16.9629 7.6582 16.8662 7.62305 16.7783L8.08008 16.0137C8.23828 15.7588 8.21191 15.4424 8.00098 15.249L7.46484 14.7217C7.24512 14.5195 6.96387 14.4668 6.71777 14.6162L5.96191 15.0908C5.83008 15.0293 5.72461 14.9941 5.61914 14.959L5.41699 14.0977C5.34668 13.8076 5.10938 13.6143 4.81055 13.6143H4.05469C3.74707 13.6143 3.50977 13.8164 3.44824 14.0977L3.25488 14.9502C3.12305 14.9941 3.00879 15.0293 2.89453 15.0908L2.14746 14.6162C1.91016 14.4756 1.61133 14.5107 1.40039 14.7217L0.873047 15.249C0.670898 15.4512 0.618164 15.7588 0.776367 16.0137L1.24219 16.7783C1.20703 16.8662 1.1543 16.9805 1.11035 17.0947L0.266602 17.2969C-0.0234375 17.3672 -0.216797 17.6045 -0.216797 17.8857V18.6328C-0.216797 18.9404 -0.0234375 19.1689 0.266602 19.2393L1.11914 19.4414C1.16309 19.5557 1.20703 19.6436 1.25098 19.7578L0.811523 20.5049C0.65332 20.7686 0.679688 21.0674 0.881836 21.2695L1.40039 21.8057C1.61133 22.0254 1.91016 22.0342 2.16504 21.876L2.91211 21.4277C3.03516 21.4893 3.14941 21.5332 3.25488 21.5596L3.44824 22.4121C3.50977 22.7021 3.74707 22.8955 4.05469 22.8955ZM4.43262 19.7139C3.62402 19.7139 2.98242 19.0635 2.98242 18.2549C2.98242 17.4639 3.62402 16.8047 4.43262 16.7959C5.22363 16.7871 5.8916 17.4639 5.8916 18.2549C5.8916 19.0635 5.22363 19.7139 4.43262 19.7139Z" fill="#1C1C1E"/>
</g>
<defs>
<clipPath id="clip0_10_515">
<rect width="24" height="24" fill="white"/>
</clipPath>
</defs>
</svg>
