<svg width="24" height="24" viewBox="0 0 24 24" fill="none" xmlns="http://www.w3.org/2000/svg">
<g clip-path="url(#clip0_10_1005)">
<path d="M18.3281 18.6504C21.0703 18.6504 23.2324 16.6377 23.2324 14.124C23.2324 12.2607 22.1689 10.5996 20.4199 9.87012C20.4287 5.88867 17.5635 3.02344 13.8809 3.02344C11.543 3.02344 9.78516 4.23633 8.68652 5.82715C6.4541 5.22949 4.10742 6.89062 4.01953 9.36914C2.00684 9.72949 0.767578 11.54 0.767578 13.7373C0.767578 16.418 3.10547 18.6504 6.18164 18.6504H18.3281ZM11.6748 12.999C11.4463 12.9199 11.1299 12.7441 10.8486 12.4717C9.84668 11.5137 9.85547 10.0986 10.8398 9.12305L12.624 7.33008C13.5996 6.35449 14.9971 6.36328 15.9814 7.34766C16.9482 8.31445 16.957 9.71191 15.9814 10.6875L14.5488 12.1201C14.7422 11.6016 14.7246 11.1094 14.584 10.6963L15.252 10.0371C15.8408 9.46582 15.8408 8.64844 15.252 8.05957C14.6719 7.48828 13.8633 7.4707 13.2744 8.06836L11.5693 9.77344C10.9717 10.3623 10.9629 11.1885 11.5605 11.751C11.8418 12.0059 12.1406 12.1465 12.457 12.1465C12.3691 12.2695 12.334 12.3223 12.1934 12.4893L11.6748 12.999ZM8.40527 14.9062C7.4209 13.9307 7.4209 12.5332 8.40527 11.5488L9.8291 10.1338C9.63574 10.6436 9.65332 11.1357 9.79395 11.54L9.12598 12.208C8.5459 12.7969 8.53711 13.6055 9.12598 14.1855C9.71484 14.7656 10.5146 14.7744 11.1035 14.1855L12.8174 12.4717C13.4062 11.8828 13.415 11.0566 12.8174 10.5029C12.5273 10.2217 12.2197 10.0898 11.877 10.1338C12 9.97559 12.1055 9.85254 12.1846 9.76465L12.7031 9.25488C12.9492 9.3252 13.2568 9.50098 13.5469 9.77344C14.54 10.7314 14.5225 12.1553 13.5469 13.1309L11.7627 14.9062C10.7695 15.8906 9.38086 15.8906 8.40527 14.9062Z" fill="#1C1C1E"/>
</g>
<defs>
<clipPath id="clip0_10_1005">
<rect width="24" height="24" fill="white"/>
</clipPath>
</defs>
</svg>
