<svg width="24" height="24" viewBox="0 0 24 24" fill="none" xmlns="http://www.w3.org/2000/svg">
<g clip-path="url(#clip0_10_995)">
<path d="M18.3281 18.6504C21.0703 18.6504 23.2324 16.6377 23.2324 14.124C23.2324 12.2607 22.1689 10.5996 20.4199 9.87012C20.4287 5.88867 17.5635 3.02344 13.8809 3.02344C11.543 3.02344 9.78516 4.23633 8.68652 5.82715C6.4541 5.22949 4.10742 6.89062 4.01953 9.36914C2.00684 9.72949 0.767578 11.54 0.767578 13.7373C0.767578 16.418 3.10547 18.6504 6.18164 18.6504H18.3281ZM12.0088 12.6738C11.4902 12.6738 11.2002 12.3838 11.1826 11.8564L11.0508 8.20898C11.0332 7.67285 11.4287 7.28613 12 7.28613C12.5625 7.28613 12.9756 7.68164 12.958 8.21777L12.8262 11.8564C12.7998 12.3926 12.5098 12.6738 12.0088 12.6738ZM12 15.9697C11.4199 15.9697 10.9277 15.5566 10.9277 14.9678C10.9277 14.3789 11.4111 13.9658 12 13.9658C12.5889 13.9658 13.0723 14.3789 13.0723 14.9678C13.0723 15.5654 12.5889 15.9697 12 15.9697Z" fill="#1C1C1E"/>
</g>
<defs>
<clipPath id="clip0_10_995">
<rect width="24" height="24" fill="white"/>
</clipPath>
</defs>
</svg>
