<svg width="24" height="24" viewBox="0 0 24 24" fill="none" xmlns="http://www.w3.org/2000/svg">
<g clip-path="url(#clip0_10_988)">
<path d="M18.3281 18.6504C21.0703 18.6504 23.2324 16.6377 23.2324 14.124C23.2324 12.2607 22.1689 10.5996 20.4199 9.87012C20.4287 5.88867 17.5635 3.02344 13.8809 3.02344C11.543 3.02344 9.78516 4.23633 8.68652 5.82715C6.4541 5.22949 4.10742 6.89062 4.01953 9.36914C2.00684 9.72949 0.767578 11.54 0.767578 13.7373C0.767578 16.418 3.10547 18.6504 6.18164 18.6504H18.3281ZM10.2773 14.7041C9.97852 14.9941 9.55664 14.9414 9.27539 14.6777C9.00293 14.4229 8.95898 13.9834 9.24902 13.6846L10.9629 11.9531L9.24902 10.2305C8.95898 9.93164 9.02051 9.50977 9.27539 9.2373C9.53906 8.95605 9.97852 8.91211 10.2773 9.21094L12 10.9248L13.7227 9.21094C14.0303 8.91211 14.4521 8.97363 14.7246 9.2373C14.9971 9.49219 15.041 9.93164 14.751 10.2305L13.0371 11.9531L14.751 13.6846C15.041 13.9834 14.9883 14.4053 14.7246 14.6865C14.4609 14.959 14.0215 14.9941 13.7227 14.7041L12 12.9902L10.2773 14.7041Z" fill="#1C1C1E"/>
</g>
<defs>
<clipPath id="clip0_10_988">
<rect width="24" height="24" fill="white"/>
</clipPath>
</defs>
</svg>
