<svg width="24" height="24" viewBox="0 0 24 24" fill="none" xmlns="http://www.w3.org/2000/svg">
<g clip-path="url(#clip0_10_993)">
<path d="M18.3281 18.6504C21.0703 18.6504 23.2324 16.6377 23.2324 14.124C23.2324 12.2607 22.1689 10.5996 20.4199 9.87012C20.4287 5.88867 17.5635 3.02344 13.8809 3.02344C11.543 3.02344 9.78516 4.23633 8.68652 5.82715C6.4541 5.22949 4.10742 6.89062 4.01953 9.36914C2.00684 9.72949 0.767578 11.54 0.767578 13.7373C0.767578 16.418 3.10547 18.6504 6.18164 18.6504H18.3281ZM11.3584 15.0469C11.042 15.0469 10.7871 14.9062 10.5674 14.625L8.59863 12.1904C8.44922 12.0059 8.37891 11.8125 8.37891 11.6104C8.37891 11.1621 8.73047 10.8281 9.16113 10.8281C9.43359 10.8281 9.66211 10.9512 9.8291 11.1797L11.3232 13.0869L14.2676 8.2002C14.4346 7.91895 14.6895 7.76074 14.9619 7.76074C15.4014 7.76074 15.7705 8.08594 15.7705 8.50781C15.7705 8.70996 15.665 8.9209 15.5684 9.0791L12.1143 14.6074C11.9385 14.8887 11.666 15.0469 11.3584 15.0469Z" fill="#1C1C1E"/>
</g>
<defs>
<clipPath id="clip0_10_993">
<rect width="24" height="24" fill="white"/>
</clipPath>
</defs>
</svg>
