<svg width="24" height="24" viewBox="0 0 24 24" fill="none" xmlns="http://www.w3.org/2000/svg">
<g clip-path="url(#clip0_51_8)">
<g clip-path="url(#clip1_51_8)">
<path d="M11.8457 22.0469C17.3828 22.0469 21.9531 17.4766 21.9531 11.9492C21.9531 6.42188 17.373 1.85156 11.8359 1.85156C6.30859 1.85156 1.74805 6.42188 1.74805 11.9492C1.74805 17.4766 6.31836 22.0469 11.8457 22.0469ZM11.8457 20.0352C7.36328 20.0352 3.7793 16.4316 3.7793 11.9492C3.7793 7.4668 7.36328 3.87305 11.8359 3.87305C16.3184 3.87305 19.9219 7.4668 19.9316 11.9492C19.9414 16.4316 16.3281 20.0352 11.8457 20.0352ZM11.7871 8.64844C12.5391 8.64844 13.125 8.05273 13.125 7.32031C13.125 6.55859 12.5391 5.97266 11.7871 5.97266C11.0547 5.97266 10.459 6.55859 10.459 7.32031C10.459 8.05273 11.0547 8.64844 11.7871 8.64844ZM10.1172 17.2617H14.082C14.5215 17.2617 14.873 16.9492 14.873 16.5C14.873 16.0801 14.5215 15.748 14.082 15.748H12.998V11.1387C12.998 10.5527 12.7051 10.1621 12.1582 10.1621H10.293C9.85352 10.1621 9.51172 10.4941 9.51172 10.9141C9.51172 11.3633 9.85352 11.6855 10.293 11.6855H11.2891V15.748H10.1172C9.6875 15.748 9.33594 16.0801 9.33594 16.5C9.33594 16.9492 9.6875 17.2617 10.1172 17.2617Z" fill="black"/>
</g>
</g>
<defs>
<clipPath id="clip0_51_8">
<rect width="24" height="24" fill="white"/>
</clipPath>
<clipPath id="clip1_51_8">
<rect width="24" height="24" fill="white"/>
</clipPath>
</defs>
</svg>
