<svg width="24" height="24" viewBox="0 0 24 24" fill="none" xmlns="http://www.w3.org/2000/svg">
<g clip-path="url(#clip0_10_1696)">
<path d="M12.4834 19.4502C12.7646 19.4502 13.0107 19.3447 13.2129 19.1514L20.0508 12.4629C20.2881 12.2256 20.4111 11.9619 20.4111 11.6543C20.4111 11.3467 20.2881 11.0654 20.042 10.8369L13.2041 4.15723C13.0107 3.96387 12.7646 3.8584 12.4834 3.8584C11.8945 3.8584 11.4287 4.31543 11.4287 4.89551C11.4287 5.17676 11.5518 5.44922 11.7539 5.65137L17.9062 11.6455L11.7539 17.6572C11.5518 17.8594 11.4287 18.123 11.4287 18.4131C11.4287 18.9932 11.8945 19.4502 12.4834 19.4502ZM4.62598 19.4502C4.91602 19.4502 5.15332 19.3447 5.35547 19.1514L12.1934 12.4629C12.4395 12.2256 12.5537 11.9619 12.5537 11.6543C12.5537 11.3467 12.4307 11.0654 12.1934 10.8369L5.35547 4.15723C5.15332 3.96387 4.91602 3.8584 4.62598 3.8584C4.03711 3.8584 3.58008 4.31543 3.58008 4.89551C3.58008 5.17676 3.69434 5.44922 3.89648 5.65137L10.0576 11.6455L3.89648 17.6572C3.70312 17.8594 3.58008 18.123 3.58008 18.4131C3.58008 18.9932 4.03711 19.4502 4.62598 19.4502Z" fill="#1C1C1E"/>
</g>
<defs>
<clipPath id="clip0_10_1696">
<rect width="24" height="24" fill="white"/>
</clipPath>
</defs>
</svg>
