<svg width="24" height="24" viewBox="0 0 24 24" fill="none" xmlns="http://www.w3.org/2000/svg">
<g clip-path="url(#clip0_10_1698)">
<path d="M10.7783 19.1514C10.9805 19.3447 11.2266 19.4502 11.5078 19.4502C12.0967 19.4502 12.5537 18.9932 12.5537 18.4131C12.5537 18.123 12.4395 17.8594 12.2373 17.6572L6.08496 11.6455L12.2373 5.65137C12.4395 5.44922 12.5537 5.17676 12.5537 4.89551C12.5537 4.31543 12.0967 3.8584 11.5078 3.8584C11.2266 3.8584 10.9805 3.96387 10.7871 4.15723L3.94922 10.8369C3.70312 11.0654 3.58008 11.3467 3.58008 11.6543C3.58008 11.9619 3.70312 12.2256 3.94043 12.4629L10.7783 19.1514ZM18.6357 19.1514C18.8379 19.3447 19.0752 19.4502 19.3652 19.4502C19.9541 19.4502 20.4111 18.9932 20.4111 18.4131C20.4111 18.123 20.2881 17.8594 20.0947 17.6572L13.9336 11.6455L20.0947 5.65137C20.2969 5.44922 20.4111 5.17676 20.4111 4.89551C20.4111 4.31543 19.9541 3.8584 19.3652 3.8584C19.0752 3.8584 18.8379 3.96387 18.6357 4.15723L11.7979 10.8369C11.5605 11.0654 11.4375 11.3467 11.4287 11.6543C11.4287 11.9619 11.5518 12.2256 11.7979 12.4629L18.6357 19.1514Z" fill="#1C1C1E"/>
</g>
<defs>
<clipPath id="clip0_10_1698">
<rect width="24" height="24" fill="white"/>
</clipPath>
</defs>
</svg>
