<svg width="24" height="24" viewBox="0 0 24 24" fill="none" xmlns="http://www.w3.org/2000/svg">
<g clip-path="url(#clip0_10_1834)">
<path d="M10.8311 19.8369C11.5078 19.8369 12.0176 19.3359 12.0176 18.6504V15.5039H12.2373C15.4453 15.5039 17.4053 16.4443 18.7852 19.0107C19.1367 19.6523 19.5586 19.8018 20.0244 19.8018C20.6396 19.8018 21.1143 19.2217 21.1143 18.1055C21.1143 11.7246 18.293 7.83105 12.2373 7.83105H12.0176V4.70215C12.0176 4.0166 11.5078 3.47168 10.8135 3.47168C10.3477 3.47168 10.0137 3.66504 9.50391 4.13965L2.54297 10.626C2.2002 10.9512 2.06836 11.3203 2.06836 11.6543C2.06836 11.9795 2.2002 12.3574 2.54297 12.6826L9.50391 19.2129C9.96973 19.6523 10.3477 19.8369 10.8311 19.8369Z" fill="#1C1C1E"/>
</g>
<defs>
<clipPath id="clip0_10_1834">
<rect width="24" height="24" fill="white"/>
</clipPath>
</defs>
</svg>
