<svg width="24" height="24" viewBox="0 0 24 24" fill="none" xmlns="http://www.w3.org/2000/svg">
<g clip-path="url(#clip0_10_721)">
<path d="M11.9561 20.5928C12.1143 20.5928 12.3428 20.5312 12.5713 20.417C17.6074 17.8242 19.2773 16.4619 19.2773 13.3066V6.77637C19.2773 5.73926 18.873 5.36133 18.0029 5.00098C17.0361 4.59668 13.8193 3.46289 12.8789 3.14648C12.5889 3.05859 12.2637 2.99707 11.9561 2.99707C11.6572 2.99707 11.332 3.05859 11.042 3.14648C10.0928 3.44531 6.87598 4.60547 5.91797 5.00098C5.04785 5.35254 4.64355 5.73926 4.64355 6.77637V13.3066C4.64355 16.4619 6.38379 17.7012 11.3496 20.417C11.5781 20.54 11.8066 20.5928 11.9561 20.5928ZM10.9805 15.7412C10.6465 15.7412 10.374 15.6006 10.1279 15.2842L7.97461 12.6738C7.81641 12.4717 7.7373 12.2607 7.7373 12.041C7.7373 11.584 8.09766 11.2148 8.5459 11.2148C8.82715 11.2148 9.03809 11.3203 9.2666 11.6016L10.9541 13.7373L14.5752 7.94531C14.7686 7.6377 15.0146 7.47949 15.2959 7.47949C15.7354 7.47949 16.1484 7.78711 16.1484 8.25293C16.1484 8.45508 16.043 8.6748 15.9199 8.87695L11.7979 15.2754C11.5957 15.583 11.3145 15.7412 10.9805 15.7412Z" fill="#1C1C1E"/>
</g>
<defs>
<clipPath id="clip0_10_721">
<rect width="24" height="24" fill="white"/>
</clipPath>
</defs>
</svg>
