<svg width="24" height="24" viewBox="0 0 24 24" fill="none" xmlns="http://www.w3.org/2000/svg">
<g clip-path="url(#clip0_10_610)">
<path d="M11.9912 20.8125C12.1494 20.8125 12.3867 20.7598 12.6152 20.6367C17.6689 17.8857 19.4268 16.6113 19.4268 13.4121V6.77637C19.4268 5.72168 19.0225 5.34375 18.1348 4.96582C17.168 4.55273 13.8809 3.41016 12.9316 3.08496C12.6328 2.98828 12.2988 2.92676 11.9912 2.92676C11.6924 2.92676 11.3496 3.00586 11.0596 3.08496C10.1104 3.35742 6.82324 4.56152 5.85645 4.96582C4.96875 5.33496 4.56445 5.72168 4.56445 6.77637V13.4121C4.56445 16.6113 6.32227 17.8682 11.376 20.6367C11.6045 20.7598 11.8418 20.8125 11.9912 20.8125ZM11.9912 18.9492C11.8682 18.9492 11.7451 18.9053 11.4902 18.7471C7.48242 16.3037 6.23438 15.6445 6.23438 13.0869V11.6543H12.1406V4.61426C12.2285 4.63184 12.334 4.6582 12.4658 4.70215C13.626 5.15918 16.1309 6.04688 17.4404 6.5127C17.6953 6.60938 17.7568 6.74121 17.7568 7.05762V11.6543H12.1406V18.9229C12.0879 18.9404 12.0439 18.9492 11.9912 18.9492Z" fill="#1C1C1E"/>
</g>
<defs>
<clipPath id="clip0_10_610">
<rect width="24" height="24" fill="white"/>
</clipPath>
</defs>
</svg>
