<svg width="24" height="24" viewBox="0 0 24 24" fill="none" xmlns="http://www.w3.org/2000/svg">
<g clip-path="url(#clip0_10_1083)">
<path d="M0.503906 4.47363C0.503906 5.4668 1.33008 6.31055 2.34082 6.31055C3.35156 6.31055 4.18652 5.4668 4.18652 4.47363C4.18652 3.4541 3.35156 2.62793 2.34082 2.62793C1.33008 2.62793 0.503906 3.4541 0.503906 4.47363ZM19.8223 4.47363C19.8223 5.4668 20.6484 6.31055 21.6504 6.31055C22.6611 6.31055 23.4961 5.4668 23.4961 4.47363C23.4961 3.4541 22.6611 2.62793 21.6504 2.62793C20.6484 2.62793 19.8223 3.4541 19.8223 4.47363ZM-1.66699 13.9658C-1.67578 14.4932 -1.35938 14.8008 -0.911133 14.8008C-0.462891 14.8008 -0.146484 14.4932 -0.146484 13.9658V10.2832C-0.146484 10.0811 -0.0410156 9.95801 0.117188 9.95801C0.275391 9.95801 0.380859 10.0811 0.380859 10.2832V19.793C0.380859 20.3906 0.741211 20.707 1.2334 20.707C1.72559 20.707 2.08594 20.3906 2.08594 19.793V13.8691C2.08594 13.6758 2.18262 13.5439 2.34082 13.5439C2.49023 13.5439 2.5957 13.6758 2.5957 13.8691V19.793C2.5957 20.3906 2.95605 20.707 3.44824 20.707C3.94043 20.707 4.30957 20.3906 4.30957 19.793V10.2832C4.30957 10.0811 4.38867 9.95801 4.55566 9.95801C4.72266 9.95801 4.81934 10.0811 4.81934 10.2832L4.82812 13.9658C4.81934 14.4932 5.14453 14.8008 5.59277 14.8008C6.04102 14.8008 6.34863 14.4932 6.34863 13.9658V10.3711C6.34863 7.99805 5.0127 7.05762 2.34082 7.05762C-0.331055 7.05762 -1.67578 7.99805 -1.67578 10.3711L-1.66699 13.9658ZM17.6426 13.9658C17.6426 14.4932 17.959 14.8008 18.4072 14.8008C18.8467 14.8008 19.1719 14.4932 19.1719 13.9658V10.2832C19.1719 10.0811 19.2773 9.95801 19.4355 9.95801C19.6025 9.95801 19.6904 10.0811 19.6904 10.2832V19.793C19.6904 20.3906 20.0596 20.707 20.5518 20.707C21.0439 20.707 21.3955 20.3906 21.3955 19.793V13.8691C21.3955 13.6758 21.5098 13.5439 21.6504 13.5439C21.8174 13.5439 21.9053 13.6758 21.9053 13.8691V19.793C21.9053 20.3906 22.2744 20.707 22.7666 20.707C23.2588 20.707 23.6104 20.3906 23.6104 19.793V10.2832C23.6104 10.0811 23.7158 9.95801 23.874 9.95801C24.0322 9.95801 24.1465 10.0811 24.1465 10.2832V13.9658C24.1465 14.4932 24.4629 14.8008 24.9111 14.8008C25.3594 14.8008 25.667 14.4932 25.667 13.9658V10.3711C25.667 7.99805 24.3223 7.05762 21.6504 7.05762C18.9785 7.05762 17.6426 7.99805 17.6426 10.3711V13.9658ZM8.55469 12.832C9.21387 12.832 9.74121 12.3135 9.74121 11.6543C9.74121 10.9951 9.21387 10.4678 8.55469 10.4678C7.89551 10.4678 7.36816 10.9951 7.36816 11.6543C7.36816 12.3135 7.89551 12.832 8.55469 12.832ZM12.0088 12.832C12.6592 12.832 13.1865 12.3135 13.1865 11.6543C13.1865 10.9951 12.6592 10.4678 12.0088 10.4678C11.3496 10.4678 10.8223 10.9951 10.8223 11.6543C10.8223 12.3135 11.3496 12.832 12.0088 12.832ZM15.4453 12.832C16.1045 12.832 16.6318 12.3135 16.6318 11.6543C16.6318 10.9951 16.1045 10.4678 15.4453 10.4678C14.7949 10.4678 14.2676 10.9951 14.2676 11.6543C14.2676 12.3135 14.7949 12.832 15.4453 12.832Z" fill="#1C1C1E"/>
</g>
<defs>
<clipPath id="clip0_10_1083">
<rect width="24" height="24" fill="white"/>
</clipPath>
</defs>
</svg>
