<svg width="24" height="24" viewBox="0 0 24 24" fill="none" xmlns="http://www.w3.org/2000/svg">
<g clip-path="url(#clip0_10_1467)">
<path d="M11.9912 20.7422C16.9746 20.7422 21.0879 16.6289 21.0879 11.6543C21.0879 9.6416 20.4111 7.76953 19.2773 6.25781L19.9805 5.55469C20.209 5.32617 20.332 5.05371 20.332 4.79004C20.332 4.24512 19.9014 3.81445 19.3477 3.81445C19.0225 3.81445 18.7939 3.91113 18.5654 4.13086L17.9062 4.78125C16.5527 3.6123 14.8564 2.83887 13.0107 2.61914V1.73145C13.0107 1.15137 12.5537 0.685547 11.9912 0.685547C11.4375 0.685547 10.9717 1.15137 10.9717 1.73145V2.61914C6.46289 3.1377 2.90332 7.02246 2.90332 11.6543C2.90332 16.6289 7.0166 20.7422 11.9912 20.7422ZM11.9912 13.1836C11.1475 13.1836 10.4707 12.5068 10.4707 11.6631C10.4707 11.1006 10.7871 10.6172 11.2969 10.3271V6.09961C11.2969 5.71289 11.5957 5.40527 11.9824 5.40527C12.3779 5.40527 12.6855 5.71289 12.6855 6.09961V10.3359C13.1953 10.6084 13.5029 11.0918 13.5029 11.6631C13.5029 12.5068 12.835 13.1836 11.9912 13.1836Z" fill="#1C1C1E"/>
</g>
<defs>
<clipPath id="clip0_10_1467">
<rect width="24" height="24" fill="white"/>
</clipPath>
</defs>
</svg>
