<svg width="24" height="24" viewBox="0 0 24 24" fill="none" xmlns="http://www.w3.org/2000/svg">
<g clip-path="url(#clip0_10_1299)">
<path d="M11.9912 20.7422C16.9746 20.7422 21.0879 16.6289 21.0879 11.6543C21.0879 6.67969 16.9658 2.56641 11.9824 2.56641C7.00781 2.56641 2.90332 6.67969 2.90332 11.6543C2.90332 16.6289 7.0166 20.7422 11.9912 20.7422ZM6.7002 6.14355C7.57031 5.30859 8.64258 4.66699 9.8291 4.30664C9.20508 4.93066 8.67773 5.81836 8.28223 6.89062C7.66699 6.69727 7.13086 6.44238 6.7002 6.14355ZM14.1621 4.31543C15.3486 4.67578 16.4121 5.30859 17.2822 6.15234C16.8516 6.45117 16.3242 6.69727 15.709 6.89941C15.3135 5.81836 14.7861 4.93945 14.1621 4.31543ZM9.50391 7.19824C9.9873 5.90625 10.6465 4.95703 11.376 4.61426V7.3916C10.708 7.36523 10.084 7.30371 9.50391 7.19824ZM12.6064 4.61426C13.3359 4.95703 14.0039 5.90625 14.4785 7.19824C13.9072 7.30371 13.2744 7.36523 12.6064 7.3916V4.61426ZM4.35352 11.0391C4.47656 9.55371 5.03027 8.18262 5.8916 7.05762C6.41895 7.45312 7.11328 7.7959 7.92188 8.05078C7.69336 8.95605 7.55273 9.9668 7.50879 11.0391H4.35352ZM16.4736 11.0391C16.4385 9.9668 16.2891 8.95605 16.0605 8.05078C16.8691 7.7959 17.5635 7.45312 18.0908 7.05762C18.9521 8.18262 19.5059 9.55371 19.6289 11.0391H16.4736ZM12.6064 11.0391V8.62207C13.3887 8.5957 14.1445 8.50781 14.8389 8.36719C15.041 9.18457 15.1816 10.0898 15.2168 11.0391H12.6064ZM8.76562 11.0391C8.80957 10.0898 8.94141 9.18457 9.14355 8.36719C9.84668 8.50781 10.5938 8.5957 11.376 8.62207V11.0391H8.76562ZM4.35352 12.2695H7.50879C7.54395 13.3594 7.69336 14.3789 7.93066 15.3018C7.13086 15.5566 6.43652 15.8906 5.90918 16.2773C5.03906 15.1436 4.47656 13.7637 4.35352 12.2695ZM8.76562 12.2695H11.376V14.7305C10.6025 14.7568 9.84668 14.8447 9.15234 14.9854C8.94141 14.1504 8.80957 13.2275 8.76562 12.2695ZM12.6064 14.7305V12.2695H15.2256C15.1816 13.2275 15.041 14.1504 14.8301 14.9854C14.1357 14.8447 13.3887 14.7568 12.6064 14.7305ZM16.0605 15.3018C16.2891 14.3789 16.4385 13.3594 16.4824 12.2695H19.6289C19.5059 13.7637 18.9434 15.1436 18.0732 16.2773C17.5459 15.8906 16.8604 15.5566 16.0605 15.3018ZM12.6064 15.9609C13.2744 15.9873 13.8896 16.0488 14.4697 16.1543C13.9951 17.4199 13.3359 18.3604 12.6064 18.7031V15.9609ZM9.52148 16.1543C10.0928 16.0488 10.7168 15.9873 11.376 15.9609V18.7031C10.6553 18.3604 9.99609 17.4199 9.52148 16.1543ZM6.72656 17.1826C7.15723 16.8926 7.68457 16.6465 8.29102 16.4531C8.67773 17.5078 9.20508 18.3779 9.81152 18.9932C8.64258 18.6416 7.58789 18.0088 6.72656 17.1826ZM15.7002 16.4531C16.3066 16.6465 16.834 16.8926 17.2646 17.1826C16.3945 18.0088 15.3398 18.6416 14.1709 18.9932C14.7861 18.3779 15.3047 17.5078 15.7002 16.4531Z" fill="#1C1C1E"/>
</g>
<defs>
<clipPath id="clip0_10_1299">
<rect width="24" height="24" fill="white"/>
</clipPath>
</defs>
</svg>
